<svg width="1066" height="622" viewBox="0 0 1066 622" fill="none" xmlns="http://www.w3.org/2000/svg">
<path d="M0 0H1066V558C1022.33 558 983.787 529.47 971.033 487.705L967 474.5L960.935 443.306C954.673 411.104 923.055 390.43 891.044 397.608C875.675 401.055 862.357 410.582 854.132 424.014L818.715 481.851C814.583 488.598 811.178 495.764 808.557 503.229L788.456 560.464C784.848 570.737 779.417 580.275 772.424 588.621C737.958 629.75 675.489 632.055 638.086 593.577L626.586 581.746C622.878 577.932 618.688 574.617 614.123 571.886L580.44 551.733C568.903 544.831 555.194 542.515 542.03 545.244C509.739 551.938 479.117 528.171 477.589 495.229L477.303 489.064C474.622 431.242 400.044 409.882 367.158 457.516L319.777 526.147C309.557 540.95 294.653 551.883 277.464 557.185L254.87 564.155C152.608 595.7 47.3374 524.772 38.1678 418.149C35.7879 390.476 42.5139 362.783 57.3221 339.285L118 243L124.448 229.823C127.772 223.031 129.5 215.569 129.5 208.007C129.5 202.414 128.187 196.899 125.667 191.906L119.668 180.017C108.273 157.439 93.9282 136.476 77.0098 117.678C73.01 113.233 69.381 108.469 66.1592 103.432L0 0Z" fill="#8C0B1C" fill-opacity="0.13"/>
</svg>
